<svg xmlns="http://www.w3.org/2000/svg" version="1.1" xmlns:xlink="http://www.w3.org/1999/xlink" xmlns:svgjs="http://svgjs.dev/svgjs" width="100%" height="100%" viewBox="0 0 1000 600"><rect width="1000" height="600" x="0" y="0" fill="#4b5320"/><g><rect width="333.3333333333333" height="333.3333333333333" y="315.71125453342" fill="black" transform="matrix(0.4259102913970904,0,0,0.4259102913970904,0,94.55027736974286)" x="293.48895263671875"/><path d="M471.1824174923231 557.37791802429L471.1824174923231 557.37791802429Q465.2002748162919 557.37791802429 457.2538464854444 557.37791802429Q449.33718005845776 557.37791802429 441.7181326700797 557.37791802429Q434.12884718556245 557.37791802429 428.56337116358316 557.37791802429Q422.96813323774296 557.37791802429 421.6883713717263 557.37791802429L421.6883713717263 557.37791802429Q420.6169428327356 557.37791802429 419.99194285165777 556.7231561393513Q419.337180966719 556.0981561582735 419.337180966719 555.0267276192828L419.337180966719 555.0267276192828Q419.337180966719 537.2291091104933 419.337180966719 520.2945858136686Q419.337180966719 503.3898244207046 419.337180966719 486.8719677779318Q419.337180966719 470.3838730390198 419.337180966719 453.449349742195Q419.337180966719 436.51482644537026 419.337180966719 418.5088746095548L419.337180966719 418.5088746095548L440.76575174653243 418.5088746095548L439.2776565534898 422.1695887844396Q439.2776565534898 430.94935042339097 439.2776565534898 438.65768352335164Q439.2776565534898 446.3660166233123 439.2776565534898 454.93744493523764L439.2776565534898 454.93744493523764Q439.2776565534898 465.4433969981184 439.2776565534898 475.9493490609991Q439.2776565534898 486.45530112387985 439.2776565534898 496.84220557131715Q439.2776565534898 507.2291100187545 439.2776565534898 517.9433954086612Q439.2776565534898 528.657680798568 439.2776565534898 539.8183947463874L439.2776565534898 539.8183947463874Q444.3967040175564 539.8183947463874 448.9205134044059 539.8183947463874Q453.4145608873945 539.8183947463874 457.78956075493977 539.8183947463874Q462.19432252634584 539.8183947463874 467.13479856724723 539.8183947463874L467.13479856724723 539.8183947463874Q476.5395601872765 539.8183947463874 482.3431314401426 537.0207757834673Q488.11694078914786 534.2231568205473 490.914559752068 529.1041093564806Q493.6824168111272 523.9552999885533 493.6824168111272 516.8719668696706L493.6824168111272 516.8719668696706L493.6824168111272 510.8898241936393Q493.6824168111272 504.66958628672126 490.914559752068 499.9374435728458Q488.11694078914786 495.2350627628312 481.3609886127345 492.5564914153545Q474.63479834018193 489.8779200678778 462.4026558533718 489.8779200678778L462.4026558533718 489.8779200678778L429.84313302959976 489.8779200678778L430.46813301067766 477.0207775999898L487.7002741350959 477.0207775999898L487.7002741350959 482.16958696791716Q500.557416602984 484.72911069995047 507.194321163954 492.7648247423805Q513.831225724924 500.8005387848105 513.831225724924 513.4493479256726L513.831225724924 513.4493479256726L513.831225724924 519.2231572746779Q513.831225724924 532.3183949734528 508.593130645414 540.7707756699347Q503.32527366204323 549.2231563664166 493.6824168111272 553.3005371953534Q484.03955996021114 557.37791802429 471.1824174923231 557.37791802429ZM406.48003849883094 407.3779225655962L406.48003849883094 407.3779225655962Q421.48003804470034 407.3779225655962 436.5990852060131 407.3779225655962Q451.6883704634651 407.3779225655962 466.68837000933445 407.3779225655962L466.68837000933445 407.3779225655962Q478.9205124961446 407.3779225655962 487.58122651965255 409.9374462976295Q496.2717024470213 412.5267319335236 501.6288451419747 417.3481603589816Q506.985987836928 422.1695887844396 509.45622585737874 428.4791124029402Q511.89670197396856 434.81839792530167 511.89670197396856 442.08030246734955L511.89670197396856 442.08030246734955L511.89670197396856 447.22911183527697Q511.89670197396856 456.00887347422827 508.9205115878834 462.43744470817234Q505.91455929793733 468.86601594211635 500.0217023334887 473.2707777135224Q494.12884536904 477.6755394849285 485.4383694416712 479.81839656290987Q476.7776554181633 481.9612536408912 465.2002748162919 481.9612536408912L465.2002748162919 481.9612536408912Q455.55741796537586 481.9612536408912 447.8490848654152 481.9612536408912Q440.1109898615937 481.9612536408912 433.05741864657176 481.9612536408912L433.05741864657176 481.9612536408912L430.46813301067766 483.86601548798575L429.84313302959976 472.7350634440271Q438.2062280144992 472.7350634440271 446.3312277685117 472.7350634440271Q454.4859894263852 472.7350634440271 462.6109891803977 472.7350634440271L462.6109891803977 472.7350634440271Q474.3967031092951 472.7350634440271 480.7359886316566 469.93744448110704Q487.04551225015723 467.16958742204775 489.5157502706079 461.901730438677Q491.9859882910587 456.663635359167 491.9859882910587 450.02673079819704L491.9859882910587 450.02673079819704L491.9859882910587 444.6695881032437Q491.9859882910587 440.17554062025505 490.79551213662455 436.72315977239623Q489.63479788605133 433.30054082839825 487.04551225015723 430.94935042339097L487.04551225015723 430.94935042339097Q484.277655191098 428.1517314604709 479.2181315347532 426.54458865198484Q474.18836978226915 424.93744584349884 466.8967033363605 424.93744584349884L466.8967033363605 424.93744584349884Q457.2538464854444 424.93744584349884 447.6109896345284 424.93744584349884Q437.9681327836123 424.93744584349884 428.23599022111375 424.93744584349884Q418.4740857547543 424.93744584349884 408.8312289038383 424.93744584349884L408.8312289038383 424.93744584349884Q407.7598003648476 424.93744584349884 407.1348003837697 424.31244586242093Q406.48003849883094 423.65768397748224 406.48003849883094 422.58625543849155L406.48003849883094 422.58625543849155Q406.48003849883094 418.5088746095548 406.48003849883094 414.9969699539743Q406.48003849883094 411.4553033945329 406.48003849883094 407.3779225655962Z " fill="red" transform="matrix(0.4259102913970904,0,0,0.4259102913970904,0,94.55027736974286)"/><path d="M753.7331233489413 451.51273979957L753.7331233489413 451.51273979957Q763.4730383443663 451.51273979957 771.5144395531231 454.67091387165607Q779.5293014839633 457.8290879437421 785.367942625635 463.37579702833017Q791.18004448939 468.92250611291826 794.2320614498092 476.56581815292475Q797.3106176881452 484.2091301929313 797.3106176881452 493.36518107418914L797.3106176881452 493.36518107418914L797.3106176881452 514.5700641296239Q797.3106176881452 527.2027604179681 791.6577514918904 536.8365183017263Q786.0314245735522 546.4968154634012 776.0791953547937 551.9373674363226Q766.153505413952 557.3779194092439 753.7331233489413 557.3779194092439L753.7331233489413 557.3779194092439Q743.9932083535163 557.3779194092439 735.9518071447594 554.3259024488245Q727.9369452139192 551.2738854884053 722.0983040722476 545.6210192921505Q716.2862022084926 539.9946923738123 713.2341852480733 532.3513803338058Q710.1556290097374 524.7080682937992 710.1556290097374 515.5254781346248L710.1556290097374 515.5254781346248L710.1556290097374 494.32059507918996Q710.1556290097374 481.52866312334567 715.8084952059921 471.9745230733375Q721.4348221243304 462.42038302332935 731.3870513430888 456.979831050408Q741.3127412839307 451.51273979957 753.7331233489413 451.51273979957ZM754.6885373539421 467.5690029391671L754.6885373539421 467.5690029391671Q745.9040363635179 467.5690029391671 739.8796202764295 471.20488401375354Q733.855204189341 474.84076508834 730.6970301172548 480.9447990091785Q727.5653953230856 487.07537220793375 727.5653953230856 494.9044591933571L727.5653953230856 494.9044591933571L727.5653953230856 514.1985142387903Q727.5653953230856 520.5148623829623 729.5558411668372 525.5573251871333Q731.5728262885057 530.6263272692211 734.9963931397585 534.2622083438075L734.9963931397585 534.2622083438075Q738.2607243235113 537.5000002496436 742.7458622914319 539.4108282596451Q747.2310002593524 541.3216562696468 752.7777093439404 541.3216562696468L752.7777093439404 541.3216562696468Q761.5622103343646 541.3216562696468 767.586626421453 537.6061573613104Q773.6110425085416 533.8906584529739 776.7692165806277 527.7600852542186Q779.900851374797 521.65605133338 779.900851374797 514.0127392933734L779.900851374797 514.0127392933734L779.900851374797 494.7186842479403Q779.900851374797 488.0307862129346 778.0961804764621 482.85562701918013Q776.2915095781273 477.7070071033424 772.6556285035408 474.25690097417277L772.6556285035408 474.25690097417277Q769.6036115431215 471.0191090683367 765.0123164635343 469.2940560037519Q760.4210213839469 467.5690029391671 754.6885373539421 467.5690029391671ZM819.8424646394144 453.63588203290516L819.8424646394144 453.63588203290516Q824.4337597190017 453.63588203290516 829.1046726323391 453.63588203290516Q833.8021248235931 453.63588203290516 838.3934199031803 453.63588203290516L838.3934199031803 453.63588203290516Q839.7203837990148 453.63588203290516 840.5696406923489 454.2993639808224Q841.4454368635996 454.9628459287396 842.2150759231836 455.91825993374044L842.2150759231836 455.91825993374044Q848.3191098440221 466.0562640979158 854.5293008765275 476.2738860958412Q860.7394919090327 486.4915080937666 866.6577508844546 496.62951225794194L866.6577508844546 496.62951225794194L873.1598739740434 500.2388540546117Q882.3424641332178 514.0127392933734 891.4985150144757 527.7600852542186Q900.6811051736503 541.5339704929804 909.8371560549081 555.2813164538254L909.8371560549081 555.2813164538254Q907.5547781540728 555.2813164538254 905.3520180869875 555.2813164538254Q903.1492580199024 555.2813164538254 900.9730372307338 555.2813164538254Q898.7702771636486 555.2813164538254 896.7532920419802 555.2813164538254Q894.7628461982285 555.2813164538254 893.0377931336437 555.2813164538254L893.0377931336437 555.2813164538254Q890.7288759548917 555.2813164538254 889.6938441161408 554.6974523396582Q888.6322729994733 554.1401275034077 887.3053091036388 552.0435245479894L887.3053091036388 552.0435245479894Q884.4390670886364 547.8237793592357 880.1397040661327 540.7643314333964Q875.840341043629 533.6783442296403 871.142888852375 525.7696394104669Q866.4719759390376 517.8343953133767 862.0664558048672 510.7484081096207L862.0664558048672 510.7484081096207L855.7766469386119 507.1390663129509Q846.7798317248541 493.7632702429395 837.9157129006799 480.4670920066781Q829.0250547985889 467.19745304833344 819.8424646394144 453.63588203290516ZM856.1481968294455 498.9118901587772L856.1481968294455 498.9118901587772L869.1524430086233 515.1539282437911L861.5091309686168 515.1539282437911Q858.0590248394471 521.8418262787968 854.3435259311107 528.5297243138025Q850.6014877448574 535.2176223488082 846.7798317248541 541.9055203838141Q842.9581757048509 548.5934184188197 838.9507447394308 555.2813164538254L838.9507447394308 555.2813164538254L822.3371567635833 555.4670913992422Q821.3817427585825 555.4670913992422 820.7978786444153 554.9097665629918Q820.2405538081648 554.3259024488245 820.2405538081648 553.3704884438238L820.2405538081648 553.3704884438238Q820.2405538081648 552.7866243296567 820.6121036989985 552.0435245479894Q820.9836535898321 551.2738854884053 821.7532926494162 550.1326965379876L821.7532926494162 550.1326965379876Q830.3520186944235 537.3142253042267 838.9507447394308 524.5222933483824Q847.5494707844382 511.70382211462146 856.1481968294455 498.9118901587772ZM888.6322729994733 453.63588203290516L905.4581751986543 453.63588203290516Q906.4135892036552 453.63588203290516 907.0770711515723 454.1135890354056Q907.7405530994896 454.591296037906 907.7405530994896 455.5467100429068L907.7405530994896 455.5467100429068Q907.7405530994896 455.91825993374044 907.5547781540728 456.3959669362409Q907.369003208656 456.87367393874126 906.9709140399057 457.64331299832526L906.9709140399057 457.64331299832526Q898.5845022182318 470.2494700087527 889.9857761732244 483.04140196459696Q881.3870501282171 495.85987319835795 872.7883240832098 508.65180515420224L872.7883240832098 508.65180515420224L860.5537169636159 493.1794061287723L867.6131648894553 493.1794061287723Q870.877496073208 486.4915080937666 874.221445090711 479.90976717042764Q877.5653941082138 473.301486969172 881.2808930165503 466.719746045833Q884.9963919248869 460.11146584457737 888.6322729994733 453.63588203290516L888.6322729994733 453.63588203290516ZM1046.275583824608 453.63588203290516L1046.275583824608 453.63588203290516L1063.101486023789 453.63588203290516Q1063.6588108600395 453.63588203290516 1064.1365178625401 453.821656978322Q1064.6142248650403 454.0074319237388 1064.906156922124 454.37898181457246Q1065.1980889792076 454.7770709833228 1065.3838639246244 455.7324849883236L1065.3838639246244 455.7324849883236Q1068.06433099421 466.0562640979158 1070.8244158975458 476.64543598667484Q1073.6110400787982 487.2611471533506 1076.2915071483837 497.8503190421096Q1078.9454349400526 508.4660302087854 1081.3339699525548 518.9755842637944Q1083.7225049650567 529.4851383188034 1085.4475580296416 539.8089174283955L1085.4475580296416 539.8089174283955L1088.897664158811 539.8089174283955Q1090.622717223396 527.9458601996354 1092.6131630671478 516.8789813083758Q1094.630148188816 505.7855631391997 1096.8329082559012 495.1963912504407Q1099.0091290450698 484.58068008376495 1101.211889112155 474.25690097417277Q1103.4146491792403 463.93312186458064 1105.6970270800755 453.63588203290516L1105.6970270800755 453.63588203290516Q1108.3774941496613 453.63588203290516 1111.0579612192469 453.63588203290516Q1113.7384282888324 453.63588203290516 1116.498513192168 453.63588203290516Q1119.2851373734206 453.63588203290516 1121.7532902196726 453.63588203290516L1121.7532902196726 453.63588203290516Q1122.5229292792565 453.63588203290516 1123.0006362817571 453.821656978322Q1123.4783432842573 454.0074319237388 1123.770275341341 454.591296037906Q1124.0622073984246 455.14862087415645 1123.6641182296744 456.2898098245741L1123.6641182296744 456.2898098245741Q1120.9836511600886 466.6135889341663 1118.1174091450862 478.84819605376003Q1115.2511671300836 491.08280317335385 1112.1195323359143 504.0605100746149Q1108.9613582638283 517.0647562537927 1105.8031841917423 530.0690024329706Q1102.6450101196563 543.0467093342315 1099.592993159237 555.2813164538254L1099.592993159237 555.2813164538254Q1097.0983010350683 555.2813164538254 1094.4443732433992 555.2813164538254Q1091.7639061738137 555.2813164538254 1088.897664158811 555.2813164538254Q1086.0314221438089 555.2813164538254 1083.2447979625563 555.2813164538254Q1080.4847130592207 555.2813164538254 1077.990020935052 555.2813164538254L1077.990020935052 555.2813164538254Q1076.8488319846342 555.2813164538254 1076.185350036717 554.4320595604913Q1075.5218680887997 553.5562633892406 1074.9380039746325 551.2738854884053L1074.9380039746325 551.2738854884053Q1073.2129509100478 544.7717623988165 1071.5144371233796 538.2696393092276Q1069.789384058795 531.7675162196387 1067.9581738825432 525.0796181846329Q1066.1535029842084 518.3917201496272 1064.3488320858735 510.96072233295416Q1062.517621909622 503.50318523836444 1060.7925688450373 495.1963912504407Q1059.0940550583691 486.86305798460023 1057.3690019937842 477.1231429891753L1057.3690019937842 477.1231429891753L1054.1046708100314 477.1231429891753Q1052.7777069141969 484.9522299745986 1051.3445859066958 491.93206006668794Q1049.9114648991945 498.9118901587772 1048.4783438916934 505.1220811912825Q1047.045222884192 511.3322722237878 1045.6121018766908 517.1709133654595Q1044.1789808691897 522.9830152292145 1042.5600849162715 529.0074313163029Q1040.9411889633534 535.0318474033913 1039.2161358987687 541.5339704929804Q1037.491082834184 548.0095543046525 1035.5802548241822 555.2813164538254L1035.5802548241822 555.2813164538254Q1032.1301486950126 555.2813164538254 1028.4146497866761 555.2813164538254Q1024.6991508783397 555.2813164538254 1020.9571126920864 555.2813164538254Q1017.2416137837499 555.2813164538254 1013.9772825999971 555.2813164538254L1013.9772825999971 555.2813164538254Q1012.8360936495794 555.2813164538254 1012.278768813329 554.4320595604913Q1011.6949046991618 553.5562633892406 1010.9252656395779 550.8757963196549L1010.9252656395779 550.8757963196549Q1009.4125267983266 544.0021233392324 1007.2097667312414 535.1114652371415Q1005.007006664156 526.2473464129673 1002.4326967062373 516.0031851371252Q999.8583867483184 505.7855631391997 997.2575375124828 495.09023413877395Q994.6832275545639 484.3949051383481 992.0027604849784 473.7791939716724Q989.3488326933094 463.19002208291334 987.0399155145574 453.63588203290516L987.0399155145574 453.63588203290516Q989.5346076387262 453.63588203290516 992.294692542062 453.63588203290516Q995.0813167233143 453.63588203290516 997.8414016266499 453.63588203290516Q1000.6014865299857 453.63588203290516 1003.2819535995714 453.63588203290516L1003.2819535995714 453.63588203290516Q1004.0515926591553 453.63588203290516 1004.5292996616556 453.901274812072Q1005.007006664156 454.19320686915563 1005.2989387212397 454.591296037906Q1005.5908707783233 454.9628459287396 1005.7766457237401 455.91825993374044L1005.7766457237401 455.91825993374044Q1007.5016987883249 463.93312186458064 1009.7840766891602 474.17728314042273Q1012.0664545899954 484.3949051383481 1014.4549896024976 495.56794114127433Q1016.8435246149995 506.7409771442006 1019.1524417937514 518.1263273704603Q1021.4348196945868 529.4851383188034 1022.9740978137548 539.8089174283955L1022.9740978137548 539.8089174283955L1026.3976646650076 539.8089174283955Q1028.1227177295925 529.2993633733865 1030.4316349083444 518.3121023158772Q1032.7140128091798 507.3248412583677 1035.3944798787654 496.2314230891916Q1038.0749469483512 485.1645441979321 1040.8350318516868 474.36305808583955Q1043.5951167550224 463.561571973747 1046.275583824608 453.63588203290516ZM1160.1556253651222 553.184713498407L1160.1556253651222 553.184713498407Q1160.1556253651222 546.098726294651 1160.1556253651222 537.7123144729771Q1160.1556253651222 529.2993633733865 1160.1556253651222 520.3025481596288Q1160.1556253651222 511.3322722237878 1160.1556253651222 502.36199628794685Q1160.1556253651222 493.36518107418914 1160.1556253651222 485.0583870862654Q1160.1556253651222 476.7515930983416 1160.1556253651222 469.47983094916873L1160.1556253651222 469.47983094916873L1157.5016975734532 469.47983094916873Q1155.9624194542853 469.47983094916873 1154.1577485559503 469.47983094916873Q1152.3265383796988 469.47983094916873 1150.415710369697 469.47983094916873Q1148.5048823596953 469.47983094916873 1146.7002114613606 469.47983094916873Q1144.8690012851089 469.47983094916873 1142.9581732751074 469.47983094916873L1142.9581732751074 469.47983094916873Q1142.21507349344 469.47983094916873 1141.525052267606 468.92250611291826Q1140.8615703196888 468.3386419987511 1140.8615703196888 467.38322799375027L1140.8615703196888 467.38322799375027Q1140.8615703196888 464.1454360879141 1140.8615703196888 460.58917284707775Q1140.8615703196888 457.0594488841581 1140.8615703196888 453.63588203290516L1140.8615703196888 453.63588203290516Q1144.1259015034416 453.63588203290516 1147.6556254663615 453.63588203290516Q1151.1853494292811 453.63588203290516 1155.0070054492844 453.63588203290516Q1158.8286614692877 453.63588203290516 1162.4645425438741 453.63588203290516Q1166.1004236184604 453.63588203290516 1169.4443726359634 453.63588203290516Q1172.7883216534663 453.63588203290516 1175.6545636684687 453.63588203290516L1175.6545636684687 453.63588203290516Q1176.2118885047191 453.63588203290516 1176.6895955072196 453.901274812072Q1177.16730250972 454.19320686915563 1177.4592345668036 454.67091387165607Q1177.7511666238872 455.14862087415645 1177.7511666238872 455.7324849883236L1177.7511666238872 455.7324849883236Q1177.7511666238872 465.47239998374863 1177.7511666238872 475.87579692709085Q1177.7511666238872 486.30573314834976 1177.7511666238872 496.81528720335876Q1177.7511666238872 507.3248412583677 1177.7511666238872 517.6486203679599Q1177.7511666238872 527.9458601996354 1177.7511666238872 537.7123144729771L1177.7511666238872 537.7123144729771Q1177.7511666238872 540.5785564879795 1177.7511666238872 543.524416336732Q1177.7511666238872 546.4968154634012 1177.7511666238872 549.3630574784038Q1177.7511666238872 552.2292994934062 1177.7511666238872 555.2813164538254L1177.7511666238872 555.2813164538254Q1173.5314214351336 555.2813164538254 1170.001697472214 555.2813164538254Q1166.4719735092942 555.2813164538254 1162.2787675984573 555.2813164538254L1162.2787675984573 555.2813164538254Q1161.5091285388733 555.2813164538254 1160.845646590956 554.6178345059081Q1160.1556253651222 553.9543525579909 1160.1556253651222 553.184713498407ZM1156.732058513869 426.1146508332983L1156.732058513869 407.3779206241156Q1159.4125255834547 407.3779206241156 1162.1726104867905 407.3779206241156Q1164.9326953901261 407.3779206241156 1167.7193195713785 407.3779206241156Q1170.4794044747143 407.3779206241156 1173.2660286559667 407.3779206241156Q1176.0261135593023 407.3779206241156 1178.7065806288879 407.3779206241156L1178.7065806288879 407.3779206241156Q1179.6619946338888 407.3779206241156 1180.2193194701395 407.9617847382828Q1180.8031835843065 408.5191095745333 1180.8031835843065 409.47452357953404L1180.8031835843065 409.47452357953404L1180.8031835843065 428.21125378871676Q1178.1227165147209 428.21125378871676 1175.362631611385 428.21125378871676Q1172.5760074301327 428.21125378871676 1169.815922526797 428.21125378871676Q1167.0558376234612 428.21125378871676 1164.2692134422089 428.21125378871676Q1161.5091285388733 428.21125378871676 1158.8286614692877 428.21125378871676L1158.8286614692877 428.21125378871676Q1157.8732474642868 428.21125378871676 1157.2893833501196 427.6273896745496Q1156.732058513869 427.0700648382991 1156.732058513869 426.1146508332983L1156.732058513869 426.1146508332983ZM1207.740550669746 453.63588203290516L1207.740550669746 453.63588203290516L1279.7946902135577 453.63588203290516Q1280.7501042185586 453.63588203290516 1281.3074290548088 454.19320686915563Q1281.891293168976 454.7770709833228 1281.891293168976 455.7324849883236L1281.891293168976 455.7324849883236Q1281.891293168976 458.20063783457573 1281.891293168976 460.5095550133277Q1281.891293168976 462.791932914163 1281.891293168976 465.100850092915Q1281.891293168976 467.38322799375027 1281.891293168976 470.06369506333584L1281.891293168976 470.06369506333584L1209.8371536251645 470.06369506333584Q1209.465603734331 470.06369506333584 1209.0940538434972 469.877920117919Q1208.6959646747468 469.66560589458555 1208.4040326176632 469.40021311541864Q1208.1386398384966 469.1082810583351 1207.926325615163 468.71019188958473Q1207.740550669746 468.3386419987511 1207.740550669746 467.96709210791744L1207.740550669746 467.96709210791744Q1207.740550669746 465.2866250383318 1207.740550669746 462.9777078595798Q1207.740550669746 460.69532995874454 1207.740550669746 458.41295205790925Q1207.740550669746 456.10403487915727 1207.740550669746 453.63588203290516ZM1279.3966010448073 538.6677284779778L1281.891293168976 538.6677284779778Q1281.891293168976 542.2770702746477 1281.891293168976 545.9129513492342Q1281.891293168976 549.5488324238206 1281.891293168976 553.184713498407L1281.891293168976 553.184713498407Q1281.891293168976 554.1401275034077 1281.4135861664759 554.6974523396582Q1280.9358791639754 555.2813164538254 1279.7946902135577 555.2813164538254L1279.7946902135577 555.2813164538254Q1278.069637148973 555.2813164538254 1276.2384269727213 555.2813164538254Q1274.4337560743866 555.2813164538254 1272.6290851760516 555.2813164538254Q1270.7978749998001 555.2813164538254 1268.9932041014652 555.2813164538254Q1267.1619939252137 555.2813164538254 1265.4634801385455 555.2813164538254L1265.4634801385455 555.2813164538254Q1256.0951150339542 555.2813164538254 1249.009127830198 553.0785563867403Q1241.9496799043586 550.8757963196549 1236.9868349339376 546.2048834063177Q1232.0239899635167 541.5339704929804 1229.5292978393481 534.2622083438075Q1227.0346057151792 526.9904461946346 1227.0346057151792 516.693206362959L1227.0346057151792 516.693206362959Q1227.0346057151792 507.3248412583677 1227.0346057151792 497.9564761537764Q1227.0346057151792 488.58811104918504 1227.0346057151792 479.2197459445937Q1227.0346057151792 469.877920117919 1227.0346057151792 460.4033979016609Q1227.0346057151792 450.9554149633195 1227.0346057151792 441.58704985872816L1227.0346057151792 441.58704985872816Q1227.0346057151792 436.4384299428904 1227.0346057151792 431.44904569455286Q1227.0346057151792 426.48620072413195 1227.0346057151792 421.52335575371103L1227.0346057151792 421.52335575371103Q1231.0685759585162 421.52335575371103 1234.8902319785193 421.52335575371103Q1238.7118879985226 421.52335575371103 1242.5335440185258 421.52335575371103L1242.5335440185258 421.52335575371103Q1243.0908688547763 421.52335575371103 1243.5685758572768 421.8152878107946Q1244.046282859777 422.1072198678782 1244.3382149168608 422.58492687037864Q1244.6301469739444 423.062633872879 1244.6301469739444 423.6199587091295L1244.6301469739444 423.6199587091295Q1244.6301469739444 435.0849267691393 1244.6301469739444 446.47027699539905Q1244.6301469739444 457.8290879437421 1244.6301469739444 469.2940560037519Q1244.6301469739444 480.7590240637617 1244.6301469739444 492.2239921237715Q1244.6301469739444 503.68896018378126 1244.6301469739444 515.1539282437911L1244.6301469739444 515.1539282437911Q1244.6301469739444 522.0276012242136 1245.9571108697787 526.618896303801Q1247.31061404353 531.2101913833882 1250.1768560585324 534.0764333983907L1250.1768560585324 534.0764333983907Q1252.8307838502014 536.5445862446427 1256.7585969818713 537.6061573613104Q1260.6864101135413 538.6677284779778 1266.2065799202128 538.6677284779778L1266.2065799202128 538.6677284779778Q1268.5154970989647 538.6677284779778 1270.71825716605 538.6677284779778Q1272.8944779552185 538.6677284779778 1275.0176201885538 538.6677284779778Q1277.1142231439721 538.6677284779778 1279.3966010448073 538.6677284779778L1279.3966010448073 538.6677284779778ZM1314.375369339004 555.2813164538254L1314.375369339004 555.2813164538254Q1313.7915052248368 555.2813164538254 1313.3137982223366 554.9893843967418Q1312.836091219836 554.6974523396582 1312.5441591627523 554.3259024488245Q1312.2787663835857 553.9543525579909 1312.2787663835857 553.184713498407L1312.2787663835857 553.184713498407Q1312.2787663835857 537.898089418394 1312.2787663835857 522.6910831721309Q1312.2787663835857 507.51061620378454 1312.2787663835857 492.11783501210476Q1312.2787663835857 476.7515930983416 1312.2787663835857 461.46496901832853Q1312.2787663835857 446.17834493831543 1312.2787663835857 430.8917208583024L1312.2787663835857 430.8917208583024Q1312.2787663835857 424.76114765954713 1312.2787663835857 419.90445980079295Q1312.2787663835857 415.0212326641221 1312.2787663835857 411.9692157037029L1312.2787663835857 411.9692157037029Q1315.3307833440049 411.9692157037029 1317.9050933019237 411.9692157037029Q1320.4794032598425 411.9692157037029 1322.8679382723446 411.9692157037029Q1325.2564732848466 411.9692157037029 1327.7511654090154 411.9692157037029L1327.7511654090154 411.9692157037029Q1328.5208044685994 411.9692157037029 1328.892354359433 412.26114776078646Q1329.2639042502667 412.55307981787 1329.5558363073503 412.92462970870366Q1329.847768364434 413.2961795995373 1329.847768364434 414.0658186591213L1329.847768364434 414.0658186591213Q1329.847768364434 431.6613599178864 1329.847768364434 449.33651901040145Q1329.847768364434 467.0116781029166 1329.847768364434 484.6868371954317Q1329.847768364434 502.36199628794685 1329.847768364434 520.0371553804619Q1329.847768364434 537.7123144729771 1329.847768364434 555.2813164538254L1329.847768364434 555.2813164538254Q1327.1673012948481 555.2813164538254 1324.6991484485961 555.2813164538254Q1322.2044563244274 555.2813164538254 1319.7097642002586 555.2813164538254Q1317.2416113540066 555.2813164538254 1314.375369339004 555.2813164538254ZM1326.9815263494313 488.77388599460187L1326.9815263494313 488.77388599460187L1326.9815263494313 470.6210198995864L1332.714010379436 470.6210198995864Q1336.164116508606 466.42781398874945 1339.7734583052757 462.89809002582973Q1343.4093393798623 459.36836606291007 1347.522927456949 456.76751682707453Q1351.6365155340357 454.19320686915563 1356.227810613623 452.86624297332116Q1360.7925664152938 451.51273979957 1365.7819506636313 451.51273979957L1365.7819506636313 451.51273979957Q1372.2575344753034 451.51273979957 1377.3265365573911 453.63588203290516Q1382.395538639479 455.7324849883236 1385.7394876569817 459.5541410083269Q1389.0834366744846 463.37579702833017 1390.8881075728193 468.63057405583464Q1392.719317749071 473.8853510833391 1392.719317749071 480.1751599495945L1392.719317749071 480.1751599495945Q1392.719317749071 489.35775010876904 1392.719317749071 498.5403402679436Q1392.719317749071 507.69639114920136 1392.719317749071 516.958599142126Q1392.719317749071 526.2473464129673 1392.719317749071 535.5891722396418L1392.719317749071 535.5891722396418Q1392.719317749071 540.5785564879795 1392.719317749071 545.4352443467337Q1392.719317749071 550.3184714834044 1392.719317749071 555.2813164538254L1392.719317749071 555.2813164538254Q1388.4995725603173 555.2813164538254 1384.9698485973975 555.2813164538254Q1381.440124634478 555.2813164538254 1377.246918723641 555.2813164538254L1377.246918723641 555.2813164538254Q1376.6630546094739 555.2813164538254 1376.1853476069734 554.9893843967418Q1375.7076406044732 554.6974523396582 1375.4157085473896 554.3259024488245Q1375.123776490306 553.9543525579909 1375.123776490306 553.184713498407L1375.123776490306 553.184713498407Q1375.123776490306 541.5339704929804 1375.123776490306 529.9628453213038Q1375.123776490306 518.3917201496272 1375.123776490306 506.84713425586733Q1375.123776490306 495.2760090841908 1375.123776490306 483.6252660787641L1375.123776490306 483.6252660787641Q1375.123776490306 475.79617909334075 1371.4082775819695 472.05414090708757Q1367.692778673633 468.3386419987511 1360.7925664152938 468.3386419987511L1360.7925664152938 468.3386419987511Q1356.7851354498737 468.3386419987511 1352.5919295390365 469.58598806083546Q1348.3721843502829 470.8333341229199 1344.1789784394462 473.301486969172Q1339.985772528609 475.79617909334075 1335.6864095061055 479.61783511334403Q1331.3870464836018 483.4394911333473 1326.9815263494313 488.77388599460187ZM1577.8838597738124 467.7547778845839L1577.8838597738124 509.0498943229525Q1577.8838597738124 520.7006373283791 1574.433753644643 529.4851383188034Q1570.9836475154734 538.2696393092276 1564.4019065921345 543.9225055054824Q1557.8201656687954 549.5488324238206 1548.8233504550378 552.415074438823Q1539.8530745191968 555.2813164538254 1528.7596563500208 555.2813164538254L1528.7596563500208 555.2813164538254Q1524.1683612704333 555.2813164538254 1519.2055163000123 555.2813164538254Q1514.2426713295915 555.2813164538254 1509.2798263591706 555.2813164538254Q1504.3169813887496 555.2813164538254 1499.7256863091625 555.2813164538254Q1495.1343912295752 555.2813164538254 1491.4985101549887 555.2813164538254Q1487.8626290804025 555.2813164538254 1485.766026124984 555.2813164538254L1485.766026124984 555.2813164538254Q1484.810612119983 555.2813164538254 1484.2532872837326 554.6178345059081Q1483.6694231695653 553.9543525579909 1483.6694231695653 553.184713498407L1483.6694231695653 553.184713498407Q1483.6694231695653 537.7123144729771 1483.6694231695653 522.3195332812973Q1483.6694231695653 506.9267520896174 1483.6694231695653 491.5605101758543Q1483.6694231695653 476.1677289841744 1483.6694231695653 460.80148707041127Q1483.6694231695653 445.40870587873144 1483.6694231695653 429.9363068533016L1483.6694231695653 429.9363068533016L1503.7331172745824 429.9363068533016L1502.0080642099977 433.1740987591377Q1502.0080642099977 438.34925795289206 1502.0080642099977 443.97558487123024Q1502.0080642099977 449.60191178956836 1502.0080642099977 454.9628459287396L1502.0080642099977 454.9628459287396Q1502.0080642099977 465.65817492916545 1502.0080642099977 476.08811115042437Q1502.0080642099977 486.4915080937666 1502.0080642099977 496.81528720335876Q1502.0080642099977 507.1390663129509 1502.0080642099977 517.5424632562931Q1502.0080642099977 527.9458601996354 1502.0080642099977 538.8535034233946L1502.0080642099977 538.8535034233946Q1505.2723953937505 538.8535034233946 1509.5717584162542 538.8535034233946Q1513.8711214387579 538.8535034233946 1518.6481914637618 538.8535034233946Q1523.4252614887662 538.8535034233946 1528.20233151377 538.8535034233946L1528.20233151377 538.8535034233946Q1539.4549853504466 538.8535034233946 1546.6205903879525 535.403397294225Q1553.7861954254588 531.9798304429721 1557.1301444429616 525.1857752962997Q1560.4740934604645 518.3917201496272 1560.4740934604645 507.8821660946182L1560.4740934604645 507.8821660946182L1560.4740934604645 468.92250611291826Q1560.4740934604645 462.9777078595798 1559.6248365671302 458.41295205790925Q1558.7755796737963 453.821656978322 1556.9443694975446 450.37155084915236Q1555.1396985992099 446.9479839978994 1552.2734565842075 444.4532918737306L1552.2734565842075 444.4532918737306Q1549.407214569205 441.9585997495618 1545.9571084400352 440.5254787420606Q1542.5335415887823 439.09235773455936 1537.942246509195 438.5350328983089Q1533.350951429608 437.95116878414177 1527.2469175087692 437.95116878414177L1527.2469175087692 437.95116878414177Q1520.5590194737636 437.95116878414177 1513.6588072154243 437.95116878414177Q1506.785134235002 437.95116878414177 1499.8053041429127 437.95116878414177Q1492.85201332874 437.95116878414177 1486.429508072901 437.95116878414177Q1480.0335420949789 437.95116878414177 1474.301058064974 437.95116878414177L1474.301058064974 437.95116878414177Q1473.7437332287236 437.95116878414177 1473.2660262262232 437.65923672705816Q1472.7883192237227 437.3938439478913 1472.4963871666391 436.91613694539086Q1472.2044551095555 436.4384299428904 1472.2044551095555 435.8545658287233L1472.2044551095555 435.8545658287233Q1472.2044551095555 432.6167739228872 1472.2044551095555 428.79511790288393Q1472.2044551095555 424.97346188288066 1472.2044551095555 421.52335575371103L1472.2044551095555 421.52335575371103Q1477.9369391395605 421.52335575371103 1484.730994286233 421.52335575371103Q1491.4985101549887 421.52335575371103 1498.7702723041616 421.52335575371103Q1506.0154951754178 421.52335575371103 1513.5791893816743 421.52335575371103Q1521.116344310014 421.52335575371103 1528.7596563500208 421.52335575371103L1528.7596563500208 421.52335575371103Q1540.9942634696142 421.52335575371103 1550.1768536287889 424.3895977687135Q1559.3329045100465 427.25583978371594 1565.543095542552 433.0944809253876Q1571.7532865750575 438.90658278914253 1574.8053035354767 447.5053088341499Q1577.8838597738124 456.10403487915727 1577.8838597738124 467.7547778845839L1577.8838597738124 467.7547778845839ZM1681.8116720955682 488.2165611583514L1681.8116720955682 488.2165611583514Q1681.8116720955682 493.55095601960596 1681.8116720955682 498.9118901587772Q1681.8116720955682 504.2728242979485 1681.8116720955682 509.7133762708698Q1681.8116720955682 515.1539282437911 1681.8116720955682 520.5148623829623Q1681.8116720955682 525.8492572442169 1681.8116720955682 531.2101913833882L1681.8116720955682 531.2101913833882Q1681.8116720955682 533.6783442296403 1682.2893790980686 535.403397294225Q1682.7670861005688 537.1284503588099 1683.7225001055697 538.0838643638108L1683.7225001055697 538.0838643638108Q1684.6779141105706 539.0392783688114 1686.0314172843216 539.4108282596451Q1687.3583811801561 539.8089174283955 1689.2692091901579 539.8089174283955L1689.2692091901579 539.8089174283955Q1689.667298358908 539.8089174283955 1690.1450053614087 539.8089174283955Q1690.622712363909 539.8089174283955 1691.1800372001596 539.8089174283955L1691.1800372001596 539.8089174283955L1694.046279215162 539.8089174283955Q1694.046279215162 543.2324842796484 1694.046279215162 546.4968154634012Q1694.046279215162 549.7346073692373 1694.046279215162 553.184713498407L1694.046279215162 553.184713498407Q1694.046279215162 554.3259024488245 1693.4889543789116 554.803609451325Q1692.9050902647443 555.2813164538254 1691.9496762597435 555.2813164538254L1691.9496762597435 555.2813164538254Q1690.9942622547426 555.2813164538254 1688.9772771330743 555.2813164538254Q1686.9868312893225 555.2813164538254 1685.2617782247378 555.2813164538254L1685.2617782247378 555.2813164538254Q1680.8562580905675 555.2813164538254 1677.034602070564 553.9543525579909Q1673.2129460505607 552.6008493842398 1670.3467040355583 549.9203823146541Q1667.4804620205557 547.2664545229852 1665.9677231793046 543.3386413913152Q1664.4284450601365 539.4108282596451 1664.4284450601365 534.0764333983907L1664.4284450601365 534.0764333983907Q1664.4284450601365 527.3885353633849 1664.4284450601365 520.2229303258787Q1664.4284450601365 513.0573252883726 1664.4284450601365 506.36942725336695L1664.4284450601365 506.36942725336695Q1664.4284450601365 503.3174102929476 1664.4284450601365 500.2388540546117Q1664.4284450601365 497.1868370941924 1664.4284450601365 494.13482013377313Q1664.4284450601365 491.08280317335385 1664.4284450601365 488.0307862129346L1664.4284450601365 488.0307862129346Q1664.4284450601365 480.387474172928 1662.2256849930516 476.08811115042437Q1660.049464203883 471.78874812792066 1654.8743050101284 469.9575379516691Q1649.7256850942906 468.15286705333426 1640.9411841038666 468.15286705333426L1640.9411841038666 468.15286705333426Q1635.3944750192784 468.15286705333426 1630.219315825524 468.71019188958473Q1625.0706959096863 469.2940560037519 1620.1874687730153 470.5414020658363Q1615.3307809142614 471.78874812792066 1610.3679359438404 473.6995761379223L1610.3679359438404 473.6995761379223L1607.501693928838 473.6995761379223Q1607.501693928838 470.2494700087527 1607.501693928838 466.7993638795831Q1607.501693928838 463.37579702833017 1607.501693928838 459.92569089916054L1607.501693928838 459.92569089916054Q1607.501693928838 459.36836606291007 1607.6874688742548 458.9702768941597Q1607.8732438196714 458.5987270033261 1608.0590187650885 458.41295205790925L1608.0590187650885 458.41295205790925Q1609.0144327700893 457.2452238295749 1613.89765990676 455.7324849883236Q1618.7543477655142 454.19320686915563 1625.9199528030204 452.94586080707126Q1633.0855578405265 451.7250540229035 1640.9411841038666 451.7250540229035L1640.9411841038666 451.7250540229035Q1651.6365131042924 451.7250540229035 1659.359442978049 453.7154998666552Q1667.108912129722 455.7324849883236 1672.071757100143 460.11146584457737Q1677.034602070564 464.5169859787478 1679.423137083066 471.39065895917037Q1681.8116720955682 478.26433193959286 1681.8116720955682 488.2165611583514ZM1617.7989337605134 522.425690392964L1617.7989337605134 528.1581744229688Q1617.7989337605134 534.6337582346412 1621.5409719467664 537.977707252144Q1625.256470855103 541.3216562696468 1632.7140079496928 541.3216562696468L1632.7140079496928 541.3216562696468Q1639.2161310392817 541.3216562696468 1645.0282329030367 539.6231424829787Q1650.8668740447083 537.898089418394 1656.4135831292965 533.7845013413071Q1661.9602922138845 529.6709132642202 1667.8785511893063 522.425690392964L1667.8785511893063 522.425690392964L1667.8785511893063 539.0392783688114L1662.3318421047181 539.0392783688114Q1659.094050198882 544.9575373442333 1654.396598007628 548.9649683096534Q1649.7256850942906 552.9989385529901 1643.4093369501186 555.0955415084086Q1637.119528083863 557.192144463827 1629.4762160438568 557.192144463827L1629.4762160438568 557.192144463827Q1620.479400830099 557.192144463827 1613.9772777405103 553.8481954463241Q1607.501693928838 550.5042464288213 1603.8658128542515 544.4798303417328Q1600.229931779665 538.4554142546444 1600.229931779665 530.0690024329706L1600.229931779665 530.0690024329706L1600.229931779665 523.9384292342153Q1600.229931779665 517.6486203679599 1602.3265347350837 512.5796182858721Q1604.423137690502 507.51061620378454 1608.350950822172 504.0605100746149Q1612.2787639538421 500.636943223362 1617.7989337605134 498.7261152133604Q1623.3456428451016 496.81528720335876 1630.219315825524 496.81528720335876L1630.219315825524 496.81528720335876Q1636.9072138605297 496.81528720335876 1643.117404893035 496.81528720335876Q1649.3275959255404 496.81528720335876 1655.4581691242956 496.81528720335876Q1661.5622030451343 496.81528720335876 1667.8785511893063 496.81528720335876L1667.8785511893063 496.81528720335876Q1669.603604253891 496.81528720335876 1670.2670862018083 498.80573304711044Q1670.9305681497256 500.82271816877886 1671.1163430951422 503.68896018378126Q1671.3021180405592 506.5552021987838 1671.3021180405592 509.23566926836935L1671.3021180405592 509.23566926836935Q1664.2426701147199 509.23566926836935 1658.2182540276315 509.23566926836935Q1652.1938379405428 509.23566926836935 1646.0898040197042 509.23566926836935Q1639.9857700988657 509.23566926836935 1632.7140079496928 509.23566926836935L1632.7140079496928 509.23566926836935Q1628.7065769842727 509.23566926836935 1625.9199528030204 510.08492616170344Q1623.1598678996845 510.96072233295416 1621.2490398896832 513.0573252883726L1621.2490398896832 513.0573252883726Q1619.523986825098 514.5700641296239 1618.6747299317642 516.958599142126Q1617.7989337605134 519.3471341546281 1617.7989337605134 522.425690392964L1617.7989337605134 522.425690392964ZM1799.725683879419 555.2813164538254L1799.725683879419 555.2813164538254Q1795.5059386906653 555.2813164538254 1791.9762147277454 555.2813164538254Q1788.446490764826 555.2813164538254 1784.2532848539893 555.2813164538254L1784.2532848539893 555.2813164538254Q1783.669420739822 555.2813164538254 1783.1917137373214 554.9893843967418Q1782.7140067348212 554.6974523396582 1782.4220746777376 554.3259024488245Q1782.130142620654 553.9543525579909 1782.130142620654 553.184713498407L1782.130142620654 553.184713498407Q1782.130142620654 541.5339704929804 1782.130142620654 529.9628453213038Q1782.130142620654 518.3917201496272 1782.130142620654 506.84713425586733Q1782.130142620654 495.2760090841908 1782.130142620654 483.6252660787641L1782.130142620654 483.6252660787641Q1782.130142620654 475.79617909334075 1778.4146437123175 472.05414090708757Q1774.699144803981 468.3386419987511 1767.7989325456417 468.3386419987511L1767.7989325456417 468.3386419987511Q1763.7915015802216 468.3386419987511 1759.5982956693845 469.58598806083546Q1755.3785504806312 470.8333341229199 1751.185344569794 473.301486969172Q1746.9921386589574 475.79617909334075 1742.6927756364537 479.61783511334403Q1738.39341261395 483.4394911333473 1733.9878924797792 488.77388599460187L1733.9878924797792 488.77388599460187L1733.9878924797792 470.6210198995864L1739.7203765097845 470.6210198995864Q1744.1258966439548 464.88853586958146 1749.1683594481258 460.58917284707775Q1754.2373615302133 456.2898098245741 1760.1556205056352 453.901274812072Q1766.1004187589735 451.51273979957 1772.7883167939792 451.51273979957L1772.7883167939792 451.51273979957Q1779.2639006056513 451.51273979957 1784.3329026877393 453.63588203290516Q1789.4019047698268 455.7324849883236 1792.7458537873297 459.5541410083269Q1796.0898028048325 463.37579702833017 1797.8944737031673 468.63057405583464Q1799.725683879419 473.8853510833391 1799.725683879419 480.1751599495945L1799.725683879419 480.1751599495945Q1799.725683879419 489.35775010876904 1799.725683879419 498.5403402679436Q1799.725683879419 507.69639114920136 1799.725683879419 516.958599142126Q1799.725683879419 526.2473464129673 1799.725683879419 535.5891722396418L1799.725683879419 535.5891722396418Q1799.725683879419 540.5785564879795 1799.725683879419 545.4352443467337Q1799.725683879419 550.3184714834044 1799.725683879419 555.2813164538254ZM1736.8541344947819 555.2813164538254L1736.8541344947819 555.2813164538254Q1734.1736674251963 555.2813164538254 1731.7055145789443 555.2813164538254Q1729.2108224547753 555.2813164538254 1726.7161303306066 555.2813164538254Q1724.2479774843544 555.2813164538254 1721.381735469352 555.2813164538254L1721.381735469352 555.2813164538254Q1720.797871355185 555.2813164538254 1720.4263214643513 555.1751593421586Q1720.0282322956007 555.0955415084086 1719.762839516434 554.803609451325Q1719.4709074593504 554.5116773942414 1719.3647503476836 554.1401275034077Q1719.2851325139334 553.7420383346574 1719.2851325139334 553.184713498407L1719.2851325139334 553.184713498407Q1719.2851325139334 543.0467093342315 1719.2851325139334 532.935244447973Q1719.2851325139334 522.7972402837977 1719.2851325139334 512.8715503429557Q1719.2851325139334 502.91932112419727 1719.2851325139334 492.80785623793867Q1719.2851325139334 482.6698520737633 1719.2851325139334 472.53184790958795L1719.2851325139334 472.53184790958795Q1719.2851325139334 466.42781398874945 1719.2851325139334 461.54458685207857Q1719.2851325139334 456.68789899332444 1719.2851325139334 453.63588203290516L1719.2851325139334 453.63588203290516Q1722.3371494743526 453.63588203290516 1724.9114594322716 453.63588203290516Q1727.4857693901906 453.63588203290516 1729.8743044026926 453.63588203290516Q1732.2628394151945 453.63588203290516 1734.7575315393635 453.63588203290516L1734.7575315393635 453.63588203290516Q1735.5271705989474 453.63588203290516 1735.898720489781 453.901274812072Q1736.2702703806146 454.19320686915563 1736.5622024376983 454.591296037906Q1736.8541344947819 454.9628459287396 1736.8541344947819 455.7324849883236L1736.8541344947819 455.7324849883236Q1736.8541344947819 472.1602980187543 1736.8541344947819 488.77388599460187Q1736.8541344947819 505.4140132483661 1736.8541344947819 522.0276012242136Q1736.8541344947819 538.6677284779778 1736.8541344947819 555.2813164538254ZM1844.2320529457072 553.184713498407L1844.2320529457072 553.184713498407Q1844.2320529457072 546.098726294651 1844.2320529457072 537.7123144729771Q1844.2320529457072 529.2993633733865 1844.2320529457072 520.3025481596288Q1844.2320529457072 511.3322722237878 1844.2320529457072 502.36199628794685Q1844.2320529457072 493.36518107418914 1844.2320529457072 485.0583870862654Q1844.2320529457072 476.7515930983416 1844.2320529457072 469.47983094916873L1844.2320529457072 469.47983094916873L1841.5781251540382 469.47983094916873Q1840.03884703487 469.47983094916873 1838.2341761365353 469.47983094916873Q1836.4029659602836 469.47983094916873 1834.4921379502819 469.47983094916873Q1832.5813099402806 469.47983094916873 1830.7766390419454 469.47983094916873Q1828.945428865694 469.47983094916873 1827.0346008556924 469.47983094916873L1827.0346008556924 469.47983094916873Q1826.291501074025 469.47983094916873 1825.6014798481913 468.92250611291826Q1824.937997900274 468.3386419987511 1824.937997900274 467.38322799375027L1824.937997900274 467.38322799375027Q1824.937997900274 464.1454360879141 1824.937997900274 460.58917284707775Q1824.937997900274 457.0594488841581 1824.937997900274 453.63588203290516L1824.937997900274 453.63588203290516Q1828.2023290840264 453.63588203290516 1831.7320530469462 453.63588203290516Q1835.2617770098661 453.63588203290516 1839.0834330298692 453.63588203290516Q1842.9050890498727 453.63588203290516 1846.5409701244591 453.63588203290516Q1850.1768511990456 453.63588203290516 1853.5208002165484 453.63588203290516Q1856.8647492340513 453.63588203290516 1859.7309912490534 453.63588203290516L1859.7309912490534 453.63588203290516Q1860.2883160853041 453.63588203290516 1860.7660230878048 453.901274812072Q1861.243730090305 454.19320686915563 1861.5356621473886 454.67091387165607Q1861.8275942044722 455.14862087415645 1861.8275942044722 455.7324849883236L1861.8275942044722 455.7324849883236Q1861.8275942044722 465.47239998374863 1861.8275942044722 475.87579692709085Q1861.8275942044722 486.30573314834976 1861.8275942044722 496.81528720335876Q1861.8275942044722 507.3248412583677 1861.8275942044722 517.6486203679599Q1861.8275942044722 527.9458601996354 1861.8275942044722 537.7123144729771L1861.8275942044722 537.7123144729771Q1861.8275942044722 540.5785564879795 1861.8275942044722 543.524416336732Q1861.8275942044722 546.4968154634012 1861.8275942044722 549.3630574784038Q1861.8275942044722 552.2292994934062 1861.8275942044722 555.2813164538254L1861.8275942044722 555.2813164538254Q1857.6078490157186 555.2813164538254 1854.0781250527987 555.2813164538254Q1850.5484010898788 555.2813164538254 1846.355195179042 555.2813164538254L1846.355195179042 555.2813164538254Q1845.5855561194583 555.2813164538254 1844.922074171541 554.6178345059081Q1844.2320529457072 553.9543525579909 1844.2320529457072 553.184713498407ZM1840.8084860944539 426.1146508332983L1840.8084860944539 407.3779206241156Q1843.48895316404 407.3779206241156 1846.2490380673755 407.3779206241156Q1849.0091229707111 407.3779206241156 1851.7957471519637 407.3779206241156Q1854.5558320552993 407.3779206241156 1857.3424562365515 407.3779206241156Q1860.102541139887 407.3779206241156 1862.7830082094727 407.3779206241156L1862.7830082094727 407.3779206241156Q1863.738422214474 407.3779206241156 1864.2957470507242 407.9617847382828Q1864.8796111648915 408.5191095745333 1864.8796111648915 409.47452357953404L1864.8796111648915 409.47452357953404L1864.8796111648915 428.21125378871676Q1862.1991440953054 428.21125378871676 1859.4390591919698 428.21125378871676Q1856.6524350107177 428.21125378871676 1853.8923501073816 428.21125378871676Q1851.132265204046 428.21125378871676 1848.3456410227939 428.21125378871676Q1845.5855561194583 428.21125378871676 1842.9050890498727 428.21125378871676L1842.9050890498727 428.21125378871676Q1841.9496750448718 428.21125378871676 1841.3658109307046 427.6273896745496Q1840.8084860944539 427.0700648382991 1840.8084860944539 426.1146508332983L1840.8084860944539 426.1146508332983ZM1940.9411816741228 451.51273979957L1940.9411816741228 451.51273979957Q1952.1938355107993 451.51273979957 1961.5622006153906 456.21019199082406Q1970.9305657199818 460.88110490416136 1976.55689263832 470.35562712041946Q1982.2097588345748 479.80361005876085 1982.2097588345748 494.5063700246068L1982.2097588345748 494.5063700246068L1982.2097588345748 508.4660302087854Q1982.2097588345748 509.0498943229525 1981.9178267774917 509.52760132545296Q1981.6258947204076 510.00530832795334 1981.2543448295744 510.27070110712026Q1980.8562556608238 510.5626331642039 1980.1131558791565 510.5626331642039L1980.1131558791565 510.5626331642039L1930.6174025645312 510.5626331642039Q1927.353071380778 510.5626331642039 1924.115279474942 510.5626331642039Q1920.8774875691058 510.5626331642039 1917.79893133077 510.5626331642039L1917.79893133077 510.5626331642039L1912.0664473007653 510.5626331642039L1909.5982944545128 498.14225109919323L1965.01230674456 498.14225109919323Q1965.01230674456 497.1868370941924 1965.01230674456 496.2314230891916Q1965.01230674456 495.2760090841908 1965.01230674456 494.32059507918996L1965.01230674456 494.32059507918996Q1965.01230674456 486.86305798460023 1963.3934107916423 481.42250601167893Q1961.7479755608076 475.9819540387576 1958.3244087095543 472.53184790958795L1958.3244087095543 472.53184790958795Q1955.272391749135 469.66560589458555 1950.8668716149648 468.2324848870843Q1946.4613514807945 466.7993638795831 1940.9411816741228 466.7993638795831L1940.9411816741228 466.7993638795831Q1928.5207996091124 466.7993638795831 1921.8329015741067 473.40764408083874Q1915.145003539101 479.9893850041777 1915.145003539101 494.9044591933571L1915.145003539101 494.9044591933571L1915.145003539101 514.9681532983743Q1915.145003539101 521.0721872192128 1916.8435173257692 526.0350321896337Q1918.568570390354 531.0244164379714 1921.6205873507731 534.2622083438075L1921.6205873507731 534.2622083438075Q1925.4422433707766 538.0838643638108 1931.6524344032816 539.8885352621455Q1937.862625435787 541.7197454383972 1946.0898015899609 541.7197454383972L1946.0898015899609 541.7197454383972Q1953.3615637391338 541.7197454383972 1958.6163407666384 540.9501063788132Q1963.8711177941425 540.1804673192291 1968.4358735958133 538.6677284779778Q1973.0271686754006 537.1284503588099 1977.8042387004045 534.8460724579745L1977.8042387004045 534.8460724579745L1980.6704807154072 534.8460724579745Q1980.6704807154072 537.898089418394 1980.6704807154072 541.13588132423Q1980.6704807154072 544.4002125079828 1980.6704807154072 547.6380044138189L1980.6704807154072 547.6380044138189Q1980.6704807154072 548.0095543046525 1980.4847057699901 548.4076434734029Q1980.2989308245735 548.7791933642366 1979.900841655823 549.1772825329869L1979.900841655823 549.1772825329869Q1977.9900136458216 551.0881105429885 1972.9475508416506 552.9989385529901Q1967.8785487595626 554.9097665629918 1960.7129437220567 556.1305733471595Q1953.5473386845504 557.3779194092439 1945.3201625303766 557.3779194092439L1945.3201625303766 557.3779194092439Q1934.4390585845342 557.3779194092439 1925.5484004824432 554.6974523396582Q1916.6577423803526 552.0435245479894 1910.4475513478471 546.682590408818Q1904.2373603153417 541.3216562696468 1900.9995684095054 533.4129514504734Q1897.735237225753 525.4777073533833 1897.735237225753 514.9681532983743L1897.735237225753 514.9681532983743L1897.735237225753 495.09023413877395Q1897.735237225753 483.9968159695978 1901.079186243256 475.79617909334075Q1904.4231352607587 467.5690029391671 1910.367933514097 462.2346080779125Q1916.2861924895185 456.87367393874126 1924.115279474942 454.19320686915563Q1931.9443664603652 451.51273979957 1940.9411816741228 451.51273979957ZM2004.7416057858443 411.9692157037029L2004.7416057858443 411.9692157037029Q2006.2808839050124 411.9692157037029 2009.4390579770982 411.9692157037029Q2012.5972320491844 411.9692157037029 2016.312730957521 411.9692157037029Q2020.0282298658574 411.9692157037029 2023.7702680521104 411.9692157037029Q2027.4857669604469 411.9692157037029 2030.2723911416995 411.9692157037029Q2033.032476045035 411.9692157037029 2034.3594399408696 411.9692157037029L2034.3594399408696 411.9692157037029Q2035.1290790004534 411.9692157037029 2035.527168169204 412.26114776078646Q2035.8987180600377 412.55307981787 2036.1906501171213 412.92462970870366Q2036.4825821742045 413.2961795995373 2036.4825821742045 414.0658186591213L2036.4825821742045 414.0658186591213Q2036.4825821742045 422.8503196495455 2036.4825821742045 434.3152877095553Q2036.4825821742045 445.78025576956514 2036.4825821742045 458.41295205790925Q2036.4825821742045 471.0191090683367 2036.4825821742045 483.7314231904309Q2036.4825821742045 496.4171980346084 2036.4825821742045 507.8821660946182Q2036.4825821742045 519.3471341546281 2036.4825821742045 528.1581744229688L2036.4825821742045 528.1581744229688Q2036.4825821742045 531.395966328805 2036.8541320650381 533.3067943388066Q2037.2256819558722 535.2176223488082 2038.5791851296233 536.5445862446427L2038.5791851296233 536.5445862446427Q2040.0919239708744 538.0838643638108 2042.2946840379598 538.4554142546444Q2044.4974441050447 538.8535034233946 2047.3636861200473 538.8535034233946L2047.3636861200473 538.8535034233946Q2048.690650015882 538.8535034233946 2050.1237710233827 538.8535034233946Q2051.5568920308842 538.8535034233946 2052.326531090468 538.8535034233946L2052.326531090468 538.8535034233946L2054.4231340458864 538.8535034233946Q2054.4231340458864 542.0912953292309 2054.4231340458864 545.9129513492342Q2054.4231340458864 549.7346073692373 2054.4231340458864 553.184713498407L2054.4231340458864 553.184713498407Q2054.4231340458864 553.9543525579909 2054.15774126672 554.3259024488245Q2053.8658092096366 554.6974523396582 2053.467720040886 554.9893843967418Q2053.096170150052 555.2813164538254 2052.326531090468 555.2813164538254L2052.326531090468 555.2813164538254Q2051.5568920308842 555.2813164538254 2049.7522211325495 555.2813164538254Q2047.9475502342145 555.2813164538254 2045.8244080008792 555.2813164538254Q2043.7278050454609 555.2813164538254 2041.816977035459 555.2813164538254L2041.816977035459 555.2813164538254Q2036.0844930054543 555.2813164538254 2031.7851299829506 553.8481954463241Q2027.4857669604469 552.415074438823 2024.6195249454447 549.4426753121538Q2021.753282930442 546.4968154634012 2020.320161922941 541.7993632721473Q2018.88704091544 537.1284503588099 2018.88704091544 531.0244164379714L2018.88704091544 531.0244164379714Q2018.88704091544 522.6114653383809 2018.88704091544 512.1019112833719Q2018.88704091544 501.5923572283628 2018.88704091544 490.0212320566863Q2018.88704091544 478.4766461629264 2018.88704091544 467.0116781029166Q2018.88704091544 455.5467100429068 2018.88704091544 445.3025487670647Q2018.88704091544 435.0849267691393 2018.88704091544 427.44161472913277L2018.88704091544 427.44161472913277L2017.3743020741883 427.44161472913277Q2016.6046630146045 427.44161472913277 2014.5080600591862 427.44161472913277Q2012.3849178258508 427.44161472913277 2010.2086970366825 427.44161472913277Q2008.005936969597 427.44161472913277 2006.8647480191792 427.44161472913277L2006.8647480191792 427.44161472913277Q2005.9093340141787 427.44161472913277 2005.3254699000115 426.8842898928823Q2004.7416057858443 426.3004257787151 2004.7416057858443 425.3450117737143L2004.7416057858443 425.3450117737143Q2004.7416057858443 422.1072198678782 2004.7416057858443 418.76327085037536Q2004.7416057858443 415.41932183287247 2004.7416057858443 411.9692157037029Z " fill="white" transform="matrix(0.4259102913970904,0,0,0.4259102913970904,0,94.55027736974286)"/></g></svg>